<svg xmlns="http://www.w3.org/2000/svg" width="80" height="80"  stroke="null" fill="#333" xmlns:v="https://vecta.io/nano"><path d="M52.548 67.606H27.452a15.058 15.058 0 0 1-15.058-15.058V27.452a15.058 15.058 0 0 1 15.058-15.058h25.097a15.058 15.058 0 0 1 15.058 15.058v25.097a15.058 15.058 0 0 1-15.058 15.058zM27.452 17.413a10.039 10.039 0 0 0-10.039 10.039v25.097a10.039 10.039 0 0 0 10.039 10.039h25.097a10.039 10.039 0 0 0 10.039-10.039V27.452a10.039 10.039 0 0 0-10.039-10.039H27.452zM40 54.123A14.123 14.123 0 1 1 54.123 40 14.123 14.123 0 0 1 40 54.123zm0-23.538A9.415 9.415 0 1 0 49.415 40 9.415 9.415 0 0 0 40 30.585z"/><circle r="2.625" cy="24.675" cx="54.733"/></svg>