<svg xmlns="http://www.w3.org/2000/svg" width="512" height="512"  xmlns:v="https://vecta.io/nano"><path fill="#333" stroke="null" d="M190.285 406.334c156.335 0 241.844-129.522 241.844-241.844 0-3.678 0-7.341-.248-10.987 16.635-12.033 30.995-26.93 42.406-43.997-15.512 6.874-31.97 11.381-48.819 13.373 17.74-10.619 31.025-27.335 37.368-47.013-16.684 9.9-34.939 16.878-53.973 20.632a85.11 85.11 0 0 0-61.975-26.793c-46.674 0-85.078 38.406-85.078 85.078a85.13 85.13 0 0 0 2.203 19.236A241.43 241.43 0 0 1 88.834 85.213c-22.433 38.618-10.826 88.664 26.315 113.464a84.36 84.36 0 0 1-38.578-10.639v1.077c.011 40.307 28.682 75.341 68.191 83.322a84.88 84.88 0 0 1-38.379 1.458c11.107 34.539 43.137 58.346 79.41 59.028-30.092 23.649-67.287 36.495-105.56 36.457-6.763-.013-13.519-.422-20.234-1.227a240.66 240.66 0 0 0 130.285 38.114"/></svg>