<svg xmlns="http://www.w3.org/2000/svg" width="80" height="80"  xmlns:v="https://vecta.io/nano"><path fill="#333" stroke="null" d="M70.627 27.504s-.611-4.307-2.485-6.204c-2.376-2.489-5.04-2.501-6.262-2.647-8.746-.633-21.865-.633-21.865-.633h-.028s-13.119 0-21.865.633c-1.222.146-3.885.158-6.262 2.647-1.874 1.897-2.484 6.204-2.484 6.204s-.625 5.058-.625 10.115v4.742c0 5.057.625 10.115.625 10.115s.61 4.307 2.484 6.204c2.377 2.49 5.5 2.41 6.891 2.671 5.001.48 21.25.628 21.25.628s13.133-.02 21.879-.652c1.222-.146 3.886-.158 6.262-2.647 1.874-1.897 2.485-6.204 2.485-6.204s.624-5.058.624-10.115v-4.742c0-5.058-.624-10.115-.624-10.115zM33.548 48.107l-.003-17.561 16.888 8.81-16.885 8.75z"/></svg>