<svg xmlns="http://www.w3.org/2000/svg" width="80" height="80" stroke="null" fill="#333"  xmlns:v="https://vecta.io/nano"><path d="M33.13 37.407a10.208 10.208 0 0 0-7.782 12.056 10.207 10.207 0 0 0 13.105 5.847 10.208 10.208 0 0 0 7.783-12.056 10.208 10.208 0 0 0-13.105-5.847zm.236 13.847a3.55 3.55 0 0 1-4.609-1.801 3.55 3.55 0 0 1 2.835-4.056 3.55 3.55 0 0 1 4.609 1.801 3.55 3.55 0 0 1-2.835 4.057h0zm5.139-5.487a1.216 1.216 0 1 1-.685-2.262 1.216 1.216 0 1 1 .685 2.262zm22.43-10.803a8.77 8.066 0 0 0 .408-8.334c-2.602-3.097-9.312-2.534-16.68.853a.852.784 0 0 1-1.155-1c1.42-3.441 1.44-6.353-.285-8.018-3.725-3.594-14.145-.019-23.272 7.985C11.986 33.434 7.64 41.482 9.137 45.806c-.009.344-.039.676-.011 1.04.766 9.937 15.272 17.087 32.4 15.97s29.627-10.052 29.627-20.013c0-3.693-4.016-6.309-10.219-7.84zM38.671 58.827c-11.604.756-21.452-4.359-21.996-11.425S25.096 33.995 36.7 33.238s21.452 4.359 21.996 11.425-8.421 13.408-20.025 14.164zm27.762-29.844a2.068 1.802 0 0 0 .311.021 2.041 1.777 0 0 0 2.015-1.509 8.172 7.118 0 0 0-9.324-8.113 2.042 1.779 0 0 0 .633 3.514 4.16 3.624 0 0 1 4.705 3.514 4.254 3.705 0 0 1-.048.548 2.039 1.776 0 0 0 1.709 2.026zm-6.15-15.739a15.438 11.985 0 0 0-2.659.18 1.978 1.536 0 0 0 .688 3.025 11.344 8.807 0 0 1 1.971-.134A11.219 8.71 0 0 1 71.15 27.153a1.977 1.535 0 1 0 3.834.752 15.172 11.779 0 0 0-14.702-14.66h0z"/></svg>