<svg xmlns="http://www.w3.org/2000/svg" viewBox="0 0 40 30"><title>logo</title><path d="M14.63,16.35A9.29,9.29,0,0,0,20.4,8.08c.37-2.79-1.25-5.9-4.25-5.56-5.51.4-4.47,7.53-7.37,10.94A5.93,5.93,0,0,1,5.7,15.94a15,15,0,0,1-2.32-.06,25.12,25.12,0,0,1-2.6,0c3.8-1.88,5-4.83,6.39-8.69C9.1,1.8,13.74,0,18.93,1.29a7.45,7.45,0,0,1,5.55,9.6c-1.21,4.29-5.38,6.53-9.28,7.48.79,2.95,3,13.42,7.4,10.11A5.91,5.91,0,0,0,24,26.54c1.55-3.59,2.71-7.35,4.08-11,1.48-3.9,3.61-8.94,8.15-9.33a9.82,9.82,0,0,0,2.42.14,10.74,10.74,0,0,1,2.12,0c-6.6,1.92-7.84,10-10.43,15.68-4,11.73-14.46,11.89-18.82.32-.32-.79-.62-1.59-.92-2.38-.17-.39-1.19-.16-1.6-.33a2.39,2.39,0,0,1-1.54-3.68C9.12,13.1,13.49,13,14.63,16.35Zm-4.8,1.42a1.67,1.67,0,0,0-1.38-1.42c-.13,0-.19,0-.21.17C8.08,17.47,9,17.94,9.83,17.77Z" transform="translate(-0.78 -0.89)"/></svg>